<?xml version="1.0" standalone="no"?><!DOCTYPE svg PUBLIC "-//W3C//DTD SVG 1.1//EN" "http://www.w3.org/Graphics/SVG/1.1/DTD/svg11.dtd"><svg t="1653485605834" class="icon" viewBox="0 0 1024 1024" version="1.1" xmlns="http://www.w3.org/2000/svg" p-id="11645" xmlns:xlink="http://www.w3.org/1999/xlink" width="200" height="200"><defs><style type="text/css"></style></defs><path d="M957.298 426.666v-42.67h-126.028l15.532-103.498-42.188-6.328-16.5 109.826h-148.12v-102.67h-42.686v102.67H453.58l-16.484-109.826-42.186 6.328 15.514 103.498h-129.746v42.67h136.152l16 106.654h-115.106v42.67h121.512l19.672 131.184 42.186-6.376-18.718-124.808h114.936v123.996h42.686v-123.996h119.34l-18.716 124.808 42.184 6.376 19.688-131.184h109.496V533.32h-103.122l16-106.654h132.43zM475.968 533.32l-15.998-106.654h137.34v106.654h-121.342z m289.774 0h-125.746v-106.654h141.744l-15.998 106.654z" fill="#CCD1D9" p-id="11646"></path><path d="M895.988 767.984H362.676c-11.766 0-21.344-9.562-21.344-21.312 0-11.782 9.578-21.376 21.344-21.376h533.312L1023.984 256H257.696l-36.36-133.606-0.016 0.016a21.322 21.322 0 0 0-18.046-15.578v-0.016l-179.4-21.328-0.016 0.016a18.96 18.96 0 0 0-2.516-0.172C9.56 85.332 0.016 94.894 0.016 106.676c0 10.922 8.216 19.92 18.81 21.17l165.122 19.64L213.476 256h-0.14l118.53 434.548c-19.782 10.876-33.188 31.936-33.188 56.124 0 35.312 28.656 64 63.998 64h533.312c11.782 0 21.31-9.562 21.31-21.376 0-11.75-9.528-21.312-21.31-21.312z m72.124-469.314l-104.714 384.004H373.926l-104.73-384.004h698.916z" fill="#E6E9ED" p-id="11647"></path><path d="M767.992 767.984c-47.124 0-85.31 38.188-85.31 85.31 0 47.154 38.188 85.374 85.31 85.374s85.31-38.218 85.31-85.374c0-47.122-38.186-85.31-85.31-85.31z" fill="#434A54" p-id="11648"></path><path d="M789.302 853.294c0 11.81-9.532 21.374-21.31 21.374-11.782 0-21.312-9.562-21.312-21.374 0-11.75 9.532-21.312 21.312-21.312 11.78 0 21.31 9.562 21.31 21.312z" fill="#F5F7FA" p-id="11649"></path><path d="M426.674 767.984c-47.138 0-85.342 38.188-85.342 85.31 0 47.154 38.204 85.374 85.342 85.374 47.124 0 85.326-38.218 85.326-85.374 0-47.122-38.204-85.31-85.326-85.31z" fill="#434A54" p-id="11650"></path><path d="M448.002 853.294c0 11.81-9.546 21.374-21.328 21.374s-21.344-9.562-21.344-21.374c0-11.75 9.562-21.312 21.344-21.312s21.328 9.562 21.328 21.312z" fill="#F5F7FA" p-id="11651"></path></svg>